<svg width="147" height="99" viewBox="0 0 147 99" fill="none" xmlns="http://www.w3.org/2000/svg">
<path d="M4 1.67001H25.1215V58.7454C25.1215 67.7976 29.1938 73.1852 32.5059 75.4277C29.058 78.4634 18.6059 81.1435 10.7328 74.662C6.11758 70.8333 4 64.4612 4 58.5266V1.67001ZM135.914 49.1189V43.1023H142.376V22.099H135.29C132.548 9.43686 121.39 0.029129 108.06 0.029129C92.6939 0.029129 80.1785 12.6092 80.1785 28.1156V77.1233C84.5223 77.7523 89.7891 77.0413 94.2143 73.2946C98.8566 69.4659 100.947 63.1211 100.947 57.1592V55.3269H111.481V34.3236H100.947V27.9515C100.947 18.4891 115.119 18.4891 115.119 27.9515V49.0369C115.119 64.5159 127.607 77.1233 143 77.1233V56.2021C139.063 56.2021 135.914 53.0023 135.914 49.1189ZM56.0164 22.0443V52.9476C56.0164 57.1592 49.5551 57.1592 49.5551 52.9476V22.0443H28.7051V58.3352C28.7051 64.844 30.877 73.1032 40.9219 75.8106C50.9668 78.4907 56.7223 72.9117 56.7223 72.9117C56.1521 76.5764 52.7857 79.2838 47.2475 79.8308C43.0395 80.2683 37.6912 78.8463 35.0307 77.6976V96.9233C41.8449 98.9744 49.0121 99.6034 56.0979 98.2087C68.8848 95.72 76.9479 84.9722 76.9479 70.6418V21.9076H56.0164V22.0443Z" fill="#737373"/>
</svg>
