<svg width="151" height="142" viewBox="0 0 151 142" fill="none" xmlns="http://www.w3.org/2000/svg">
<path d="M133.19 54.5545C128.495 54.5545 124.363 56.5153 121.327 59.583C110.152 51.7715 95.0953 46.743 78.4111 46.2053L87.0819 6.73628L114.691 12.9982C114.691 19.8294 120.2 25.3955 126.961 25.3955C133.848 25.3955 139.388 19.6712 139.388 12.8401C139.388 6.00888 133.879 0.284607 126.961 0.284607C122.141 0.284607 117.977 3.22581 115.911 7.24229L85.4228 0.41111C83.889 -2.563e-05 82.3865 1.10688 81.9796 2.65654L72.4636 46.1737C55.9046 46.8695 41.0046 51.898 29.7983 59.7095C26.7619 56.5153 22.4735 54.5545 17.7781 54.5545C0.373892 54.5545 -5.32317 78.1474 10.6098 86.212C10.0464 88.7104 9.79595 91.367 9.79595 94.0236C9.79595 120.526 39.3455 142 75.6252 142C112.061 142 141.611 120.526 141.611 94.0236C141.611 91.367 141.329 88.5839 140.64 86.0855C156.26 77.9893 150.501 54.5545 133.19 54.5545ZM35.8709 87.8882C35.8709 80.9305 41.3802 75.3327 48.2981 75.3327C55.0594 75.3327 60.5686 80.8988 60.5686 87.8882C60.5686 94.7193 55.0594 100.285 48.2981 100.285C41.4115 100.317 35.8709 94.7193 35.8709 87.8882ZM102.952 117.458C91.5581 128.97 59.4104 128.97 48.0163 117.458C46.7642 116.351 46.7642 114.391 48.0163 113.126C49.1119 112.019 51.0527 112.019 52.1483 113.126C60.8504 122.139 89.7113 122.297 98.789 113.126C99.8846 112.019 101.825 112.019 102.921 113.126C104.204 114.391 104.204 116.351 102.952 117.458ZM102.702 100.317C95.9405 100.317 90.4312 94.751 90.4312 87.9198C90.4312 80.9621 95.9405 75.3643 102.702 75.3643C109.588 75.3643 115.129 80.9305 115.129 87.9198C115.098 94.7193 109.588 100.317 102.702 100.317Z" fill="#737373"/>
</svg>
